<svg xmlns="http://www.w3.org/2000/svg" width="805" height="600"><rect width="805" height="600" x="0" y="0" fill="#FFFFFF" id="background"/><g transform="translate(10,10)" id="visualization"><g><rect x="0" y="5.684341886080802e-14" height="1.4358108108108354" width="5" fill="black"><title>29: 2</title></rect><rect x="0" y="6.435810810810892" height="2.1537162162162105" width="5" fill="black"><title>4: 3</title></rect><rect x="0" y="13.589527027027103" height="2.1537162162162247" width="5" fill="black"><title>13: 3</title></rect><rect x="0" y="20.743243243243327" height="2.871621621621614" width="5" fill="black"><title>20: 4</title></rect><rect x="0" y="28.61486486486494" height="3.5895270270270316" width="5" fill="black"><title>12: 5</title></rect><rect x="0" y="37.20439189189197" height="3.5895270270270316" width="5" fill="black"><title>25: 5</title></rect><rect x="0" y="45.793918918919005" height="3.589527027026975" width="5" fill="black"><title>28: 5</title></rect><rect x="0" y="54.38344594594598" height="5.025337837837839" width="5" fill="black"><title>11: 7</title></rect><rect x="0" y="64.40878378378382" height="5.02533783783781" width="5" fill="black"><title>15: 7</title></rect><rect x="0" y="74.43412162162163" height="5.02533783783781" width="5" fill="black"><title>23: 7</title></rect><rect x="0" y="84.45945945945944" height="5.02533783783781" width="5" fill="black"><title>27: 7</title></rect><rect x="0" y="94.48479729729725" height="5.02533783783781" width="5" fill="black"><title>31: 7</title></rect><rect x="0" y="104.51013513513506" height="5.743243243243228" width="5" fill="black"><title>16: 8</title></rect><rect x="0" y="115.25337837837829" height="5.743243243243228" width="5" fill="black"><title>32: 8</title></rect><rect x="0" y="125.99662162162151" height="6.461148648648631" width="5" fill="black"><title>21: 9</title></rect><rect x="0" y="137.45777027027015" height="7.179054054054063" width="5" fill="black"><title>3: 10</title></rect><rect x="0" y="149.6368243243242" height="7.179054054054063" width="5" fill="black"><title>7: 10</title></rect><rect x="0" y="161.81587837837827" height="7.179054054054063" width="5" fill="black"><title>9: 10</title></rect><rect x="0" y="173.99493243243234" height="7.8969594594594525" width="5" fill="black"><title>5: 11</title></rect><rect x="0" y="186.8918918918918" height="10.05067567567562" width="5" fill="black"><title>30: 14</title></rect><rect x="0" y="201.9425675675674" height="10.768581081081095" width="5" fill="black"><title>14: 15</title></rect><rect x="0" y="217.7111486486485" height="11.486486486486513" width="5" fill="black"><title>19: 16</title></rect><rect x="0" y="234.19763513513502" height="17.94763513513513" width="5" fill="black"><title>10: 25</title></rect><rect x="0" y="257.14527027027015" height="20.819256756756772" width="5" fill="black"><title>26: 29</title></rect><rect x="0" y="282.9645270270269" height="21.537162162162133" width="5" fill="black"><title>8: 30</title></rect><rect x="0" y="309.50168918918905" height="22.97297297297297" width="5" fill="black"><title>1: 32</title></rect><rect x="0" y="337.474662162162" height="24.408783783783804" width="5" fill="black"><title>22: 34</title></rect><rect x="0" y="366.8834459459458" height="25.844594594594582" width="5" fill="black"><title>17: 36</title></rect><rect x="0" y="397.7280405405404" height="35.89527027027026" width="5" fill="black"><title>6: 50</title></rect><rect x="0" y="438.62331081081066" height="38.04898648648651" width="5" fill="black"><title>2: 53</title></rect><rect x="260" y="70" height="45.94594594594594" width="5" fill="black"><title>Green: 64</title></rect><rect x="0" y="481.6722972972972" height="45.94594594594594" width="5" fill="black"><title>24: 64</title></rect><rect x="0" y="532.6182432432431" height="47.38175675675677" width="5" fill="black"><title>18: 66</title></rect><rect x="520" y="70" height="50.971283783783804" width="5" fill="black"><title>Red: 71</title></rect><rect x="260" y="120.94594594594594" height="66.76520270270271" width="5" fill="black"><title>Hazel: 93</title></rect><rect x="520" y="125.9712837837838" height="77.53378378378378" width="5" fill="black"><title>Black: 108</title></rect><rect x="520" y="208.50506756756758" height="91.17398648648648" width="5" fill="black"><title>Blond: 127</title></rect><rect x="260" y="192.71114864864865" height="154.3496621621622" width="5" fill="black"><title>Blue: 215</title></rect><rect x="260" y="352.06081081081084" height="157.93918918918916" width="5" fill="black"><title>Brown: 220</title></rect><rect x="780" y="75" height="200.29560810810813" width="5" fill="black"><title>Male: 279</title></rect><rect x="520" y="304.67905405405406" height="205.32094594594594" width="5" fill="black"><title>Brown: 286</title></rect><rect x="780" y="280.2956081081081" height="224.70439189189187" width="5" fill="black"><title>Female: 313</title></rect></g><g fill="none" stroke-opacity="1"><g style="mix-blend-mode: multiply;"><path d="M5,320.98817567567556C132.5,320.98817567567556,132.5,387.23817567567573,260,387.23817567567573" stroke="#1f77b4" stroke-width="22.972972972972972"/><title>1 → Brown: 32</title></g><g style="mix-blend-mode: multiply;"><path d="M5,457.6478040540539C132.5,457.6478040540539,132.5,443.59375,260,443.59375" stroke="#cccccc" stroke-width="38.048986486486484"/><title>2 → Brown: 53</title></g><g style="mix-blend-mode: multiply;"><path d="M5,141.04729729729718C132.5,141.04729729729718,132.5,360.6756756756757,260,360.6756756756757" stroke="#cccccc" stroke-width="7.1790540540540535"/><title>3 → Brown: 10</title></g><g style="mix-blend-mode: multiply;"><path d="M5,7.512668918919C132.5,7.512668918919,132.5,353.13766891891896,260,353.13766891891896" stroke="#cccccc" stroke-width="2.1537162162162162"/><title>4 → Brown: 3</title></g><g style="mix-blend-mode: multiply;"><path d="M5,177.94341216216208C132.5,177.94341216216208,132.5,215.32516891891893,260,215.32516891891893" stroke="#cccccc" stroke-width="7.896959459459459"/><title>5 → Blue: 11</title></g><g style="mix-blend-mode: multiply;"><path d="M5,415.67567567567556C132.5,415.67567567567556,132.5,283.16722972972974,260,283.16722972972974" stroke="#cccccc" stroke-width="35.89527027027027"/><title>6 → Blue: 50</title></g><g style="mix-blend-mode: multiply;"><path d="M5,153.22635135135124C132.5,153.22635135135124,132.5,207.78716216216216,260,207.78716216216216" stroke="#cccccc" stroke-width="7.1790540540540535"/><title>7 → Blue: 10</title></g><g style="mix-blend-mode: multiply;"><path d="M5,293.733108108108C132.5,293.733108108108,132.5,230.04222972972974,260,230.04222972972974" stroke="#cccccc" stroke-width="21.53716216216216"/><title>8 → Blue: 30</title></g><g style="mix-blend-mode: multiply;"><path d="M5,165.4054054054053C132.5,165.4054054054053,132.5,145.35472972972974,260,145.35472972972974" stroke="#cccccc" stroke-width="7.1790540540540535"/><title>9 → Hazel: 10</title></g><g style="mix-blend-mode: multiply;"><path d="M5,243.1714527027026C132.5,243.1714527027026,132.5,157.91807432432435,260,157.91807432432435" stroke="#ff7f0e" stroke-width="17.947635135135133"/><title>10 → Hazel: 25</title></g><g style="mix-blend-mode: multiply;"><path d="M5,56.8961148648649C132.5,56.8961148648649,132.5,134.22719594594594,260,134.22719594594594" stroke="#2ca02c" stroke-width="5.025337837837838"/><title>11 → Hazel: 7</title></g><g style="mix-blend-mode: multiply;"><path d="M5,30.409628378378454C132.5,30.409628378378454,132.5,122.74070945945945,260,122.74070945945945" stroke="#d62728" stroke-width="3.5895270270270268"/><title>12 → Hazel: 5</title></g><g style="mix-blend-mode: multiply;"><path d="M5,14.666385135135211C132.5,14.666385135135211,132.5,72.51266891891892,260,72.51266891891892" stroke="#9467bd" stroke-width="2.1537162162162162"/><title>13 → Green: 3</title></g><g style="mix-blend-mode: multiply;"><path d="M5,207.32685810810796C132.5,207.32685810810796,132.5,110.56165540540539,260,110.56165540540539" stroke="#8c564b" stroke-width="10.76858108108108"/><title>14 → Green: 15</title></g><g style="mix-blend-mode: multiply;"><path d="M5,66.92145270270274C132.5,66.92145270270274,132.5,76.10219594594594,260,76.10219594594594" stroke="#e377c2" stroke-width="5.025337837837838"/><title>15 → Green: 7</title></g><g style="mix-blend-mode: multiply;"><path d="M5,107.38175675675669C132.5,107.38175675675669,132.5,86.51182432432432,260,86.51182432432432" stroke="#7f7f7f" stroke-width="5.743243243243243"/><title>16 → Green: 8</title></g><g style="mix-blend-mode: multiply;"><path d="M5,379.8057432432431C132.5,379.8057432432431,132.5,411.6469594594595,260,411.6469594594595" stroke="#bcbd22" stroke-width="25.844594594594593"/><title>17 → Brown: 36</title></g><g style="mix-blend-mode: multiply;"><path d="M5,556.3091216216214C132.5,556.3091216216214,132.5,486.3091216216216,260,486.3091216216216" stroke="#17becf" stroke-width="47.38175675675676"/><title>18 → Brown: 66</title></g><g style="mix-blend-mode: multiply;"><path d="M5,223.45439189189176C132.5,223.45439189189176,132.5,370.00844594594594,260,370.00844594594594" stroke="#cccccc" stroke-width="11.486486486486486"/><title>19 → Brown: 16</title></g><g style="mix-blend-mode: multiply;"><path d="M5,22.179054054054138C132.5,22.179054054054138,132.5,355.65033783783787,260,355.65033783783787" stroke="#cccccc" stroke-width="2.8716216216216215"/><title>20 → Brown: 4</title></g><g style="mix-blend-mode: multiply;"><path d="M5,129.22719594594585C132.5,129.22719594594585,132.5,200.9670608108108,260,200.9670608108108" stroke="#cccccc" stroke-width="6.461148648648648"/><title>21 → Blue: 9</title></g><g style="mix-blend-mode: multiply;"><path d="M5,349.6790540540539C132.5,349.6790540540539,132.5,253.0152027027027,260,253.0152027027027" stroke="#cccccc" stroke-width="24.408783783783782"/><title>22 → Blue: 34</title></g><g style="mix-blend-mode: multiply;"><path d="M5,76.94679054054055C132.5,76.94679054054055,132.5,195.22381756756755,260,195.22381756756755" stroke="#cccccc" stroke-width="5.025337837837838"/><title>23 → Blue: 7</title></g><g style="mix-blend-mode: multiply;"><path d="M5,504.64527027027015C132.5,504.64527027027015,132.5,324.0878378378378,260,324.0878378378378" stroke="#cccccc" stroke-width="45.945945945945944"/><title>24 → Blue: 64</title></g><g style="mix-blend-mode: multiply;"><path d="M5,38.99915540540549C132.5,38.99915540540549,132.5,126.33023648648648,260,126.33023648648648" stroke="#cccccc" stroke-width="3.5895270270270268"/><title>25 → Hazel: 5</title></g><g style="mix-blend-mode: multiply;"><path d="M5,267.55489864864853C132.5,267.55489864864853,132.5,177.3015202702703,260,177.3015202702703" stroke="#cccccc" stroke-width="20.819256756756754"/><title>26 → Hazel: 29</title></g><g style="mix-blend-mode: multiply;"><path d="M5,86.97212837837836C132.5,86.97212837837836,132.5,139.25253378378378,260,139.25253378378378" stroke="#cccccc" stroke-width="5.025337837837838"/><title>27 → Hazel: 7</title></g><g style="mix-blend-mode: multiply;"><path d="M5,47.58868243243252C132.5,47.58868243243252,132.5,129.91976351351352,260,129.91976351351352" stroke="#cccccc" stroke-width="3.5895270270270268"/><title>28 → Hazel: 5</title></g><g style="mix-blend-mode: multiply;"><path d="M5,0.7179054054054622C132.5,0.7179054054054622,132.5,70.7179054054054,260,70.7179054054054" stroke="#cccccc" stroke-width="1.4358108108108107"/><title>29 → Green: 2</title></g><g style="mix-blend-mode: multiply;"><path d="M5,191.91722972972963C132.5,191.91722972972963,132.5,100.15202702702702,260,100.15202702702702" stroke="#cccccc" stroke-width="10.050675675675675"/><title>30 → Green: 14</title></g><g style="mix-blend-mode: multiply;"><path d="M5,96.99746621621617C132.5,96.99746621621617,132.5,81.12753378378378,260,81.12753378378378" stroke="#cccccc" stroke-width="5.025337837837838"/><title>31 → Green: 7</title></g><g style="mix-blend-mode: multiply;"><path d="M5,118.12499999999991C132.5,118.12499999999991,132.5,92.25506756756756,260,92.25506756756756" stroke="#cccccc" stroke-width="5.743243243243243"/><title>32 → Green: 8</title></g><g style="mix-blend-mode: multiply;"><path d="M265,395.13513513513516C392.5,395.13513513513516,392.5,179.0962837837838,520,179.0962837837838" stroke="#cccccc" stroke-width="48.817567567567565"/><title>Brown → Black: 68</title></g><g style="mix-blend-mode: multiply;"><path d="M265,467.28462837837833C392.5,467.28462837837833,392.5,467.2846283783784,520,467.2846283783784" stroke="#cccccc" stroke-width="85.43074324324324"/><title>Brown → Brown: 119</title></g><g style="mix-blend-mode: multiply;"><path d="M265,361.3935810810811C392.5,361.3935810810811,392.5,111.63851351351352,520,111.63851351351352" stroke="#cccccc" stroke-width="18.66554054054054"/><title>Brown → Red: 26</title></g><g style="mix-blend-mode: multiply;"><path d="M265,422.0565878378378C392.5,422.0565878378378,392.5,297.16638513513516,520,297.16638513513516" stroke="#cccccc" stroke-width="5.025337837837838"/><title>Brown → Blond: 7</title></g><g style="mix-blend-mode: multiply;"><path d="M265,212.0945945945946C392.5,212.0945945945946,392.5,147.508445945946,520,147.508445945946" stroke="#cccccc" stroke-width="14.358108108108107"/><title>Blue → Black: 20</title></g><g style="mix-blend-mode: multiply;"><path d="M265,316.9087837837838C392.5,316.9087837837838,392.5,394.41722972972974,520,394.41722972972974" stroke="#cccccc" stroke-width="60.30405405405405"/><title>Blue → Brown: 84</title></g><g style="mix-blend-mode: multiply;"><path d="M265,198.81334459459458C392.5,198.81334459459458,392.5,96.2035472972973,520,96.2035472972973" stroke="#cccccc" stroke-width="12.204391891891891"/><title>Blue → Red: 17</title></g><g style="mix-blend-mode: multiply;"><path d="M265,253.0152027027027C392.5,253.0152027027027,392.5,260.9121621621622,520,260.9121621621622" stroke="#cccccc" stroke-width="67.4831081081081"/><title>Blue → Blond: 94</title></g><g style="mix-blend-mode: multiply;"><path d="M265,136.38091216216216C392.5,136.38091216216216,392.5,134.94510135135138,520,134.94510135135138" stroke="#cccccc" stroke-width="10.76858108108108"/><title>Hazel → Black: 15</title></g><g style="mix-blend-mode: multiply;"><path d="M265,168.3277027027027C392.5,168.3277027027027,392.5,344.8817567567568,520,344.8817567567568" stroke="#cccccc" stroke-width="38.76689189189189"/><title>Hazel → Brown: 54</title></g><g style="mix-blend-mode: multiply;"><path d="M265,125.97128378378378C392.5,125.97128378378378,392.5,85.07601351351352,520,85.07601351351352" stroke="#cccccc" stroke-width="10.050675675675675"/><title>Hazel → Red: 14</title></g><g style="mix-blend-mode: multiply;"><path d="M265,145.35472972972974C392.5,145.35472972972974,392.5,223.5810810810811,520,223.5810810810811" stroke="#cccccc" stroke-width="7.1790540540540535"/><title>Hazel → Blond: 10</title></g><g style="mix-blend-mode: multiply;"><path d="M265,81.8454391891892C392.5,81.8454391891892,392.5,127.76604729729732,520,127.76604729729732" stroke="#cccccc" stroke-width="3.5895270270270268"/><title>Green → Black: 5</title></g><g style="mix-blend-mode: multiply;"><path d="M265,105.53631756756756C392.5,105.53631756756756,392.5,315.08868243243245,520,315.08868243243245" stroke="#cccccc" stroke-width="20.819256756756754"/><title>Green → Brown: 29</title></g><g style="mix-blend-mode: multiply;"><path d="M265,75.02533783783784C392.5,75.02533783783784,392.5,75.02533783783784,520,75.02533783783784" stroke="#cccccc" stroke-width="10.050675675675675"/><title>Green → Red: 14</title></g><g style="mix-blend-mode: multiply;"><path d="M265,89.38344594594595C392.5,89.38344594594595,392.5,214.24831081081084,520,214.24831081081084" stroke="#cccccc" stroke-width="11.486486486486486"/><title>Green → Blond: 16</title></g><g style="mix-blend-mode: multiply;"><path d="M525,146.07263513513516C652.5,146.07263513513516,652.5,119.51013513513513,780,119.51013513513513" stroke="#cccccc" stroke-width="40.2027027027027"/><title>Black → Male: 56</title></g><g style="mix-blend-mode: multiply;"><path d="M525,356.0092905405405C652.5,356.0092905405405,652.5,223.9653716216216,780,223.9653716216216" stroke="#cccccc" stroke-width="102.66047297297297"/><title>Brown → Male: 143</title></g><g style="mix-blend-mode: multiply;"><path d="M525,82.20439189189189C652.5,82.20439189189189,652.5,87.20439189189189,780,87.20439189189189" stroke="#cccccc" stroke-width="24.408783783783782"/><title>Red → Male: 34</title></g><g style="mix-blend-mode: multiply;"><path d="M525,225.0168918918919C652.5,225.0168918918919,652.5,156.1233108108108,780,156.1233108108108" stroke="#cccccc" stroke-width="33.023648648648646"/><title>Blond → Male: 46</title></g><g style="mix-blend-mode: multiply;"><path d="M525,184.83952702702706C652.5,184.83952702702706,652.5,325.52364864864865,780,325.52364864864865" stroke="#cccccc" stroke-width="37.33108108108108"/><title>Black → Female: 52</title></g><g style="mix-blend-mode: multiply;"><path d="M525,458.66976351351354C652.5,458.66976351351354,652.5,453.66976351351354,780,453.66976351351354" stroke="#cccccc" stroke-width="102.66047297297297"/><title>Brown → Female: 143</title></g><g style="mix-blend-mode: multiply;"><path d="M525,107.69003378378378C652.5,107.69003378378378,652.5,293.5768581081081,780,293.5768581081081" stroke="#cccccc" stroke-width="26.5625"/><title>Red → Female: 37</title></g><g style="mix-blend-mode: multiply;"><path d="M525,270.60388513513516C652.5,270.60388513513516,652.5,373.2643581081081,780,373.2643581081081" stroke="#cccccc" stroke-width="58.15033783783784"/><title>Blond → Female: 81</title></g></g><g><text x="9" y="0.7179054054054745" text-anchor="start"><tspan alignment-baseline="middle" x="9" style="font-family: Arial, sans-serif; font-size: 10px; fill: black; font-weight: bold;">29</tspan></text><text x="9" y="7.5126689189189975" text-anchor="start"><tspan alignment-baseline="middle" x="9" style="font-family: Arial, sans-serif; font-size: 10px; fill: black; font-weight: bold;">4</tspan></text><text x="9" y="14.666385135135215" text-anchor="start"><tspan alignment-baseline="middle" x="9" style="font-family: Arial, sans-serif; font-size: 10px; fill: black; font-weight: bold;">13</tspan></text><text x="9" y="22.179054054054134" text-anchor="start"><tspan alignment-baseline="middle" x="9" style="font-family: Arial, sans-serif; font-size: 10px; fill: black; font-weight: bold;">20</tspan></text><text x="9" y="30.409628378378457" text-anchor="start"><tspan alignment-baseline="middle" x="9" style="font-family: Arial, sans-serif; font-size: 10px; fill: black; font-weight: bold;">12</tspan></text><text x="9" y="38.99915540540549" text-anchor="start"><tspan alignment-baseline="middle" x="9" style="font-family: Arial, sans-serif; font-size: 10px; fill: black; font-weight: bold;">25</tspan></text><text x="9" y="47.58868243243249" text-anchor="start"><tspan alignment-baseline="middle" x="9" style="font-family: Arial, sans-serif; font-size: 10px; fill: black; font-weight: bold;">28</tspan></text><text x="9" y="56.8961148648649" text-anchor="start"><tspan alignment-baseline="middle" x="9" style="font-family: Arial, sans-serif; font-size: 10px; fill: black; font-weight: bold;">11</tspan></text><text x="9" y="66.92145270270272" text-anchor="start"><tspan alignment-baseline="middle" x="9" style="font-family: Arial, sans-serif; font-size: 10px; fill: black; font-weight: bold;">15</tspan></text><text x="9" y="76.94679054054053" text-anchor="start"><tspan alignment-baseline="middle" x="9" style="font-family: Arial, sans-serif; font-size: 10px; fill: black; font-weight: bold;">23</tspan></text><text x="9" y="86.97212837837834" text-anchor="start"><tspan alignment-baseline="middle" x="9" style="font-family: Arial, sans-serif; font-size: 10px; fill: black; font-weight: bold;">27</tspan></text><text x="9" y="96.99746621621615" text-anchor="start"><tspan alignment-baseline="middle" x="9" style="font-family: Arial, sans-serif; font-size: 10px; fill: black; font-weight: bold;">31</tspan></text><text x="9" y="107.38175675675667" text-anchor="start"><tspan alignment-baseline="middle" x="9" style="font-family: Arial, sans-serif; font-size: 10px; fill: black; font-weight: bold;">16</tspan></text><text x="9" y="118.1249999999999" text-anchor="start"><tspan alignment-baseline="middle" x="9" style="font-family: Arial, sans-serif; font-size: 10px; fill: black; font-weight: bold;">32</tspan></text><text x="9" y="129.22719594594582" text-anchor="start"><tspan alignment-baseline="middle" x="9" style="font-family: Arial, sans-serif; font-size: 10px; fill: black; font-weight: bold;">21</tspan></text><text x="9" y="141.04729729729718" text-anchor="start"><tspan alignment-baseline="middle" x="9" style="font-family: Arial, sans-serif; font-size: 10px; fill: black; font-weight: bold;">3</tspan></text><text x="9" y="153.22635135135124" text-anchor="start"><tspan alignment-baseline="middle" x="9" style="font-family: Arial, sans-serif; font-size: 10px; fill: black; font-weight: bold;">7</tspan></text><text x="9" y="165.4054054054053" text-anchor="start"><tspan alignment-baseline="middle" x="9" style="font-family: Arial, sans-serif; font-size: 10px; fill: black; font-weight: bold;">9</tspan></text><text x="9" y="177.94341216216208" text-anchor="start"><tspan alignment-baseline="middle" x="9" style="font-family: Arial, sans-serif; font-size: 10px; fill: black; font-weight: bold;">5</tspan></text><text x="9" y="191.9172297297296" text-anchor="start"><tspan alignment-baseline="middle" x="9" style="font-family: Arial, sans-serif; font-size: 10px; fill: black; font-weight: bold;">30</tspan></text><text x="9" y="207.32685810810796" text-anchor="start"><tspan alignment-baseline="middle" x="9" style="font-family: Arial, sans-serif; font-size: 10px; fill: black; font-weight: bold;">14</tspan></text><text x="9" y="223.45439189189176" text-anchor="start"><tspan alignment-baseline="middle" x="9" style="font-family: Arial, sans-serif; font-size: 10px; fill: black; font-weight: bold;">19</tspan></text><text x="9" y="243.1714527027026" text-anchor="start"><tspan alignment-baseline="middle" x="9" style="font-family: Arial, sans-serif; font-size: 10px; fill: black; font-weight: bold;">10</tspan></text><text x="9" y="267.55489864864853" text-anchor="start"><tspan alignment-baseline="middle" x="9" style="font-family: Arial, sans-serif; font-size: 10px; fill: black; font-weight: bold;">26</tspan></text><text x="9" y="293.733108108108" text-anchor="start"><tspan alignment-baseline="middle" x="9" style="font-family: Arial, sans-serif; font-size: 10px; fill: black; font-weight: bold;">8</tspan></text><text x="9" y="320.9881756756755" text-anchor="start"><tspan alignment-baseline="middle" x="9" style="font-family: Arial, sans-serif; font-size: 10px; fill: black; font-weight: bold;">1</tspan></text><text x="9" y="349.67905405405395" text-anchor="start"><tspan alignment-baseline="middle" x="9" style="font-family: Arial, sans-serif; font-size: 10px; fill: black; font-weight: bold;">22</tspan></text><text x="9" y="379.8057432432431" text-anchor="start"><tspan alignment-baseline="middle" x="9" style="font-family: Arial, sans-serif; font-size: 10px; fill: black; font-weight: bold;">17</tspan></text><text x="9" y="415.6756756756755" text-anchor="start"><tspan alignment-baseline="middle" x="9" style="font-family: Arial, sans-serif; font-size: 10px; fill: black; font-weight: bold;">6</tspan></text><text x="9" y="457.64780405405395" text-anchor="start"><tspan alignment-baseline="middle" x="9" style="font-family: Arial, sans-serif; font-size: 10px; fill: black; font-weight: bold;">2</tspan></text><text x="269" y="92.97297297297297" text-anchor="start"><tspan alignment-baseline="middle" x="269" style="font-family: Arial, sans-serif; font-size: 10px; fill: black; font-weight: bold;">Green</tspan></text><text x="9" y="504.64527027027015" text-anchor="start"><tspan alignment-baseline="middle" x="9" style="font-family: Arial, sans-serif; font-size: 10px; fill: black; font-weight: bold;">24</tspan></text><text x="9" y="556.3091216216214" text-anchor="start"><tspan alignment-baseline="middle" x="9" style="font-family: Arial, sans-serif; font-size: 10px; fill: black; font-weight: bold;">18</tspan></text><text x="516" y="95.4856418918919" text-anchor="end"><tspan alignment-baseline="middle" x="516" style="font-family: Arial, sans-serif; font-size: 10px; fill: black; font-weight: bold;">Red</tspan></text><text x="269" y="154.3285472972973" text-anchor="start"><tspan alignment-baseline="middle" x="269" style="font-family: Arial, sans-serif; font-size: 10px; fill: black; font-weight: bold;">Hazel</tspan></text><text x="516" y="164.73817567567568" text-anchor="end"><tspan alignment-baseline="middle" x="516" style="font-family: Arial, sans-serif; font-size: 10px; fill: black; font-weight: bold;">Black</tspan></text><text x="516" y="254.09206081081084" text-anchor="end"><tspan alignment-baseline="middle" x="516" style="font-family: Arial, sans-serif; font-size: 10px; fill: black; font-weight: bold;">Blond</tspan></text><text x="269" y="269.88597972972974" text-anchor="start"><tspan alignment-baseline="middle" x="269" style="font-family: Arial, sans-serif; font-size: 10px; fill: black; font-weight: bold;">Blue</tspan></text><text x="269" y="431.0304054054054" text-anchor="start"><tspan alignment-baseline="middle" x="269" style="font-family: Arial, sans-serif; font-size: 10px; fill: black; font-weight: bold;">Brown</tspan></text><text x="776" y="175.14780405405406" text-anchor="end"><tspan alignment-baseline="middle" x="776" style="font-family: Arial, sans-serif; font-size: 10px; fill: black; font-weight: bold;">Male</tspan></text><text x="516" y="407.33952702702703" text-anchor="end"><tspan alignment-baseline="middle" x="516" style="font-family: Arial, sans-serif; font-size: 10px; fill: black; font-weight: bold;">Brown</tspan></text><text x="776" y="392.64780405405406" text-anchor="end"><tspan alignment-baseline="middle" x="776" style="font-family: Arial, sans-serif; font-size: 10px; fill: black; font-weight: bold;">Female</tspan></text></g><g><text x="2.5" y="-3.999999999999943" text-anchor="middle" style="font-family: Arial, sans-serif; font-size: 12px; fill: rgb(123, 123, 123); font-weight: bold;"/><text x="262.5" y="66" text-anchor="middle" style="font-family: Arial, sans-serif; font-size: 12px; fill: rgb(123, 123, 123); font-weight: bold;">Eye</text><text x="522.5" y="66" text-anchor="middle" style="font-family: Arial, sans-serif; font-size: 12px; fill: rgb(123, 123, 123); font-weight: bold;">Hair</text><text x="782.5" y="71" text-anchor="middle" style="font-family: Arial, sans-serif; font-size: 12px; fill: rgb(123, 123, 123); font-weight: bold;">Sex</text></g></g></svg>